<?xml version="1.0" encoding="UTF-8" standalone="no"?>
<svg
   xmlns:dc="http://purl.org/dc/elements/1.1/"
   xmlns:cc="http://creativecommons.org/ns#"
   xmlns:rdf="http://www.w3.org/1999/02/22-rdf-syntax-ns#"
   xmlns:svg="http://www.w3.org/2000/svg"
   xmlns="http://www.w3.org/2000/svg"
   id="svg50"
   version="1.1"
   style="overflow:visible"
   viewBox="-240 -126 480 252"
   height="1008px"
   width="1920px">
  <metadata
     id="metadata56">
    <rdf:RDF>
      <cc:Work
         rdf:about="">
        <dc:format>image/svg+xml</dc:format>
        <dc:type
           rdf:resource="http://purl.org/dc/dcmitype/StillImage" />
      </cc:Work>
    </rdf:RDF>
  </metadata>
  <defs
     id="defs54" />
  <rect
     id="rect2"
     fill-opacity="0"
     fill="rgb(0,0,0)"
     height="252"
     width="480"
     y="-126"
     x="-240" />
  <svg
     id="svg48"
     version="1.1"
     y="-250"
     x="-250"
     viewBox="-250 -250 500 500"
     height="500"
     width="500"
     style="overflow:visible">
    <g
       style="fill:#ffffff;stroke-linejoin:round"
       id="g46">
      <path
         style="fill:#666666;fill-opacity:1;stroke:none;stroke-linecap:butt;stroke-linejoin:round"
         id="path4"
         d="m -156,-96.592801 h 69.99088 l 43.60336,95.704 -43.60336,97.4808 H -156 Z" />
      <path
         style="fill:#ffffff;fill-opacity:1;stroke:none;stroke-linecap:butt;stroke-linejoin:round"
         id="path6"
         d="m -142.91544,-81.18 h 23.66088 v 5.090744 h -23.66088 z" />
      <path
         style="fill:#fda0ff;fill-opacity:1;stroke:none;stroke-linecap:butt;stroke-linejoin:round"
         id="path8"
         d="m -132.10824,-30.635201 h 18.07888 v 5.090752 h -18.07888 z m 0,-10.108961 h 35.13528 v 5.090744 h -35.13528 z m 0,-10.108961 h 25.8324 v 5.090744 h -25.8324 z m 0,-10.108961 h 20.56016 v 5.090736 h -20.56016 z m 0,-10.108961 h 29.24368 v 5.090752 h -29.24368 z" />
      <path
         style="fill:#ffffff;fill-opacity:1;stroke:none;stroke-linecap:butt;stroke-linejoin:round"
         id="path10"
         d="m -142.91544,-7.524801 h 23.66088 v 5.090744 h -23.66088 z" />
      <path
         style="fill:#8afcff;fill-opacity:1;stroke:none;stroke-linecap:butt;stroke-linejoin:round"
         id="path12"
         d="m -132.10824,43.019999 h 23.08312 v 5.090736 h -23.08312 z m 0,-10.108961 h 32.07728 v 5.090744 h -32.07728 z m 0,-10.108961 h 18.04808 v 5.090744 h -18.04808 z m 0,-10.108961 h 27.2324 v 5.090744 h -27.2324 z m 0,-10.108961 h 24.51752 v 5.090736 h -24.51752 z" />
      <path
         style="fill:none;stroke:#444444;stroke-width:8;stroke-linecap:butt;stroke-linejoin:round;stroke-opacity:1"
         id="path14"
         d="m -156,-96.592801 h 69.99088 l 43.60336,95.704 -43.60336,97.4808 H -156 Z" />
      <path
         style="fill:#666666;fill-opacity:1;stroke:none;stroke-linecap:butt;stroke-linejoin:round"
         id="path16"
         d="M -86.005601,-96.592801 H 156 v 193.1848 H -86.005602 Z" />
      <path
         style="fill:#51ff42;fill-opacity:1;stroke:none;stroke-linecap:butt;stroke-linejoin:round"
         id="path18"
         d="M -27.0616,-55.449601 H 1.32624 v 5.090744 H -27.0616 Z m -28.94208,0 h 23.6608 v 5.090744 h -23.6608 z" />
      <path
         style="fill:#ffffff;fill-opacity:1;stroke:none;stroke-linecap:butt;stroke-linejoin:round"
         id="path20"
         d="m -27.0616,-68.3152 h 23.6608 v 5.090752 h -23.6608 z m -28.94208,0 h 23.6608 v 5.090752 h -23.6608 z" />
      <path
         style="fill:#fda0ff;fill-opacity:1;stroke:none;stroke-linecap:butt;stroke-linejoin:round"
         id="path22"
         d="M -27.0616,-81.18 H 6.05336 v 5.090744 h -33.114961 z m -28.94208,0 h 23.6608 v 5.090744 h -23.6608 z" />
      <path
         style="fill:#8afcff;fill-opacity:1;stroke:none;stroke-linecap:butt;stroke-linejoin:round"
         id="path24"
         d="m -56.004,22.021599 h 23.9452 v 5.090744 H -56.004 Z" />
      <path
         style="fill:#fda0ff;fill-opacity:1;stroke:none;stroke-linecap:butt;stroke-linejoin:round"
         id="path26"
         d="m 16.098399,-29.4568 h 18.4592 v 5.090744 H 16.098398 Z m -30.852961,0 h 24.8752 v 5.090744 h -24.875201 z m -41.248881,0 h 35.87432 v 5.090744 h -35.874321 z" />
      <path
         style="fill:#ffffff;fill-opacity:1;stroke:none;stroke-linecap:butt;stroke-linejoin:round"
         id="path28"
         d="m -37.059201,9.148 h 100.0384 v 5.090736 H -37.059202 Z" />
      <path
         style="fill:#ffea86;fill-opacity:1;stroke:none;stroke-linecap:butt;stroke-linejoin:round"
         id="path30"
         d="m -37.059201,-3.717601 h 30.70168 v 5.090736 h -30.70168 z m 35.93312,0 h 34.45976 v 5.090736 h -34.45976 z" />
      <path
         style="fill:#51ff42;fill-opacity:1;stroke:none;stroke-linecap:butt;stroke-linejoin:round"
         id="path32"
         d="m -37.059201,-16.582401 h 81.3968 v 5.090744 h -81.3968 z" />
      <path
         style="fill:#8afcff;fill-opacity:1;stroke:none;stroke-linecap:butt;stroke-linejoin:round"
         id="path34"
         d="m -34.604801,34.887199 h 28.5536 v 5.090744 h -28.553601 z m -21.39872,0 h 17.19864 v 5.090744 h -17.19864 z" />
      <path
         style="fill:#ffea86;fill-opacity:1;stroke:none;stroke-linecap:butt;stroke-linejoin:round"
         id="path36"
         d="m -18.4408,47.752 h 70.25624 v 5.090736 H -18.4408 Z m -37.5632,0 h 33.00088 v 5.090736 h -33.000881 z" />
      <path
         style="fill:#51ff42;fill-opacity:1;stroke:none;stroke-linecap:butt;stroke-linejoin:round"
         id="path38"
         d="m -56.004,60.6264 h 52.82576 v 5.090744 H -56.004 Z" />
      <path
         style="fill:#ffffff;fill-opacity:1;stroke:none;stroke-linecap:butt;stroke-linejoin:round"
         id="path40"
         d="m -63.420801,-87.6536 h 2.659392 V 87.6528 h -2.659393 z" />
      <path
         style="fill:#ffffff;fill-opacity:1;stroke:none;stroke-linecap:butt;stroke-linejoin:round"
         id="path42"
         d="m -76.787201,73.491199 h 8.60768 v 5.090744 h -8.60768 z m 1.6e-5,-12.867841 h 8.60768 v 5.090744 h -8.60768 z m 8e-6,-12.867841 h 8.60768 v 5.090744 h -8.60768 z m 8e-6,-12.867841 h 8.60768 v 5.090744 h -8.60768 z m 0,-12.867841 h 8.60768 v 5.09076 h -8.60768 z m 8e-6,-12.867841 h 8.60768 v 5.090744 h -8.60768 z m 8e-6,-12.867841 h 8.60768 v 5.090728 h -8.60768 z m 8e-6,-12.867841 h 8.60768 v 5.090736 h -8.60768 z m 8e-6,-12.867841 h 8.60768 v 5.090736 h -8.60768 z m 0,-12.867841 h 8.60768 v 5.090728 h -8.60768 z m 0,-12.867841 h 8.60768 v 5.090744 h -8.60768 z m 0,-12.867841 h 8.60768 v 5.090744 h -8.60768 z m 0,-12.867841 h 8.60768 v 5.090744 h -8.60768 z" />
      <path
         style="fill:none;stroke:#444444;stroke-width:8;stroke-linecap:butt;stroke-linejoin:round;stroke-opacity:1"
         id="path44"
         d="M -86.005601,-96.592801 H 156 v 193.1848 H -86.005602 Z" />
    </g>
  </svg>
</svg>
